<svg width="29" height="27" viewBox="0 0 29 27" fill="none" xmlns="http://www.w3.org/2000/svg">
<path d="M20.1416 17.6251C21.9391 15.865 23.0064 13.6039 23.1643 11.2216C23.3222 8.83932 22.561 6.48087 21.0086 4.54232C19.4562 2.60377 17.2071 1.20318 14.6391 0.575765C12.071 -0.0516554 9.34036 0.132305 6.90571 1.09675C4.47105 2.0612 2.48065 3.74739 1.26876 5.87217C0.0568727 7.99695 -0.302697 10.4309 0.250434 12.7653C0.803565 15.0997 2.23571 17.1923 4.30637 18.6919C6.37702 20.1914 8.96008 21.0064 11.6218 21.0001C14.1339 21.0031 16.5781 20.2691 18.5813 18.9101L27.2228 26.7171C27.3181 26.8061 27.4324 26.8772 27.5588 26.9261C27.6852 26.9751 27.8212 27.0009 27.9589 27.0021C28.0968 27.0024 28.2334 26.9773 28.3601 26.9283C28.4867 26.8793 28.6007 26.8074 28.695 26.7171C28.889 26.5362 28.9973 26.295 28.9973 26.0441C28.9973 25.7931 28.889 25.5519 28.695 25.371L20.1416 17.6251ZM2.10367 10.5001C2.11799 8.81477 2.68845 7.17101 3.74314 5.776C4.79784 4.38098 6.28956 3.29715 8.03024 2.66114C9.77093 2.02513 11.6827 1.86542 13.5244 2.20213C15.3662 2.53884 17.0556 3.3569 18.3796 4.55319C19.7036 5.74948 20.6029 7.27044 20.9643 8.92433C21.3256 10.5782 21.1327 12.291 20.41 13.8468C19.6873 15.4026 18.467 16.7316 16.903 17.6665C15.3391 18.6014 13.5014 19.1002 11.6218 19.1C9.08837 19.0892 6.66329 18.1775 4.87881 16.5652C3.09433 14.9528 2.09626 12.7715 2.10367 10.5001V10.5001Z" fill="black"/>
</svg>
